<svg width="24" height="24" viewBox="0 0 24 24" fill="none" xmlns="http://www.w3.org/2000/svg">
<path d="M16.9813 2C12.3371 2 8.49189 5.2 7.39326 9.5H2.62422L2 12H7.01873C7.01873 12.875 7.19351 13.7 7.41823 14.5H2.49938L2.02497 17H8.41698C10.1648 19.975 13.3358 22 17.0062 22C18.829 22 20.5268 21.475 22 20.6V17.55C20.6767 18.75 18.9538 19.5 17.0062 19.5C14.784 19.5 12.8365 18.525 11.4632 17H17.0062L17.4057 14.5H9.99001C9.71536 13.7 9.51561 12.9 9.51561 12H17.8552L18.2547 9.5H9.99001C11.0137 6.6 13.7603 4.5 17.0062 4.5C18.6542 4.5 20.1523 5.025 21.3758 5.9L21.7753 3.25C20.3521 2.475 18.7541 2 17.0062 2H16.9813Z" fill="#362FD9"/>
</svg>
