<svg width="24" height="24" viewBox="0 0 24 24" fill="none" xmlns="http://www.w3.org/2000/svg">
<path d="M21.8894 5.94114C21.0548 4.31602 19.4989 3.18313 17.696 2.88801C15.8932 2.59288 14.0572 3.17051 12.7481 4.44472L12.0007 5.12817L11.277 4.46922C9.97032 3.16968 8.11651 2.58108 6.29948 2.88879C4.49298 3.17044 2.93356 4.30685 2.11213 5.94027C1.00153 8.11669 1.43007 10.7619 3.171 12.4764L11.3733 20.9264C11.5381 21.0958 11.7644 21.1915 12.0007 21.1915C12.2371 21.1915 12.4634 21.0958 12.6282 20.9264L20.8191 12.4921C22.5672 10.776 23.0004 8.12439 21.8894 5.94114Z" fill="#362FD9"/>
</svg>
