<svg width="24" height="24" viewBox="0 0 24 24" fill="none" xmlns="http://www.w3.org/2000/svg">
<path fill-rule="evenodd" clip-rule="evenodd" d="M17.3102 5.18082L17.5788 5.58332C17.7008 5.76544 17.9056 5.87472 18.1248 5.8747H18.1467C18.3741 5.86714 18.5814 5.74231 18.6944 5.54482L20.4444 2.48233C20.5675 2.26651 20.5584 1.99971 20.4208 1.79283C20.284 1.58478 20.0403 1.47328 19.7934 1.50583L16.2934 1.94333C16.0676 1.97112 15.8723 2.11409 15.7775 2.32102C15.6828 2.52795 15.7022 2.7692 15.8288 2.95833L16.0974 3.36083C16.164 3.46165 16.1366 3.59732 16.0362 3.66445L3.63919 11.9288C3.23712 12.197 3.12861 12.7404 3.39681 13.1424C3.66502 13.5445 4.20837 13.653 4.61044 13.3848L17.0074 5.12045C17.0556 5.0882 17.1145 5.07644 17.1714 5.08776C17.2282 5.09909 17.2781 5.13258 17.3102 5.18082ZM21.4062 19.5377H18.3437C18.2856 19.5379 18.2298 19.5149 18.1887 19.4739C18.1476 19.4328 18.1247 19.377 18.1249 19.3189V8.81896C18.1249 8.33571 18.5167 7.94396 18.9999 7.94396H20.7499C21.2332 7.94396 21.6249 8.33571 21.6249 8.81896V19.3189C21.6251 19.377 21.6022 19.4328 21.5611 19.4739C21.52 19.5149 21.4642 19.5379 21.4062 19.5377ZM13.7499 11.4439C13.2667 11.4439 12.8749 11.8357 12.8749 12.3189V19.3189C12.8747 19.377 12.8977 19.4328 12.9387 19.4739C12.9798 19.5149 13.0356 19.5379 13.0937 19.5377H16.1562C16.2143 19.5379 16.27 19.5149 16.3111 19.4739C16.3522 19.4328 16.3752 19.377 16.3749 19.3189V12.3189C16.3749 11.8357 15.9832 11.4439 15.4999 11.4439H13.7499ZM7.62484 15.3815C7.62484 14.8983 8.01659 14.5065 8.49984 14.5065H10.2498C10.7331 14.5065 11.1248 14.8983 11.1248 15.3815V19.319C11.1251 19.3771 11.1021 19.4329 11.061 19.474C11.02 19.515 10.9642 19.538 10.9061 19.5378H7.84359C7.7855 19.538 7.72973 19.515 7.68865 19.474C7.64758 19.4329 7.6246 19.3771 7.62484 19.319V15.3815ZM2.37487 18.0065C2.37487 17.5233 2.76662 17.1315 3.24987 17.1315H4.99987C5.48312 17.1315 5.87487 17.5233 5.87487 18.0065V19.319C5.8751 19.3771 5.85213 19.4329 5.81106 19.4739C5.76998 19.515 5.71421 19.538 5.65612 19.5378H2.59362C2.53553 19.538 2.47976 19.515 2.43868 19.4739C2.39761 19.4329 2.37464 19.3771 2.37487 19.319V18.0065ZM21.625 22.4997H2.375C1.89175 22.4997 1.5 22.108 1.5 21.6247C1.5 21.1415 1.89175 20.7497 2.375 20.7497H21.625C22.1083 20.7497 22.5 21.1415 22.5 21.6247C22.5 22.108 22.1083 22.4997 21.625 22.4997Z" fill="#362FD9"/>
</svg>
