<svg width="24" height="24" viewBox="0 0 24 24" fill="none" xmlns="http://www.w3.org/2000/svg">
<path d="M22.416 9.05347C22.2189 8.52379 21.714 8.17186 21.1488 8.17018H15.6625C15.4712 8.17032 15.3006 8.04962 15.2371 7.86914L13.2677 2.2873C13.0702 1.75898 12.5654 1.40881 12.0014 1.40881C11.4373 1.40881 10.9326 1.75898 10.735 2.2873L10.7305 2.30172L8.76566 7.86914C8.70225 8.04931 8.53215 8.16994 8.34114 8.17018H2.85305C2.284 8.16975 1.7756 8.5257 1.58131 9.06055C1.38702 9.59541 1.54844 10.1947 1.98509 10.5596L6.65749 14.4352C6.80054 14.5539 6.85602 14.7483 6.7972 14.9246L4.83414 20.8111C4.64798 21.3696 4.8446 21.9844 5.3203 22.3312C5.796 22.6779 6.44143 22.6771 6.91617 22.3289L11.7346 18.7958C11.8931 18.6796 12.1087 18.6796 12.2673 18.7958L17.0839 22.328C17.5584 22.6773 18.2046 22.6791 18.681 22.3323C19.1574 21.9855 19.3543 21.3701 19.1677 20.8111L17.2046 14.921C17.1458 14.7447 17.2013 14.5503 17.3444 14.4316L22.0258 10.5506C22.4567 10.1826 22.6125 9.58498 22.416 9.05347Z" fill="#362FD9"/>
</svg>
